<svg xmlns:xlink="http://www.w3.org/1999/xlink" height="26.292" viewBox="0 0 159.905 26.292"
    width="159.905" xmlns="http://www.w3.org/2000/svg">
    <defs>
        <clipPath id="clip-path">
            <rect fill="none" height="26.292" width="159.905" />
        </clipPath>
    </defs>
    <g clip-path="url(#clip-path)" data-name="GFI_logo white" id="GFI_logo_white"
        transform="translate(0)">
        <g data-name="Group 259" id="Group_259">
            <g data-name="Group 258" id="Group_258">
                <g data-name="Group 255" id="Group_255">
                    <g data-name="Group 254" id="Group_254">
                        <g data-name="Group 253" id="Group_253">
                            <g data-name="Group 252" id="Group_252">
                                <g data-name="Group 248" id="Group_248"
                                    transform="translate(0 0.444)">
                                    <g data-name="Group 247" id="Group_247">
                                        <path d="M-448.248,809.643a13.707,13.707,0,0,1-4.919.925c-2.959,0-4.772-.962-6.066-2.589a10.386,10.386,0,0,1-1.849-6.214c0-5.141,1.7-9.949,4.7-13.131a11.129,11.129,0,0,1,8.1-3.44,9.982,9.982,0,0,1,3.957.667l-1.479,4.068a7.449,7.449,0,0,0-2.7-.517,5.6,5.6,0,0,0-4.143,1.664c-2.034,2.035-3.551,5.992-3.551,10.616,0,3.106,1,4.882,3,4.882a4.914,4.914,0,0,0,1.332-.147l1.146-6.178h-2.256l.777-3.735h6.435Z" data-name="Path 315"
                                            fill="#fafbff"
                                            id="Path_315"
                                            transform="translate(461.082 -785.193)" />
                                        <path d="M-409.633,807.646c0,5.7-3.033,12.354-8.544,12.354-4.549,0-5.548-3.588-5.548-6.252,0-6.1,3.367-12.428,8.84-12.428C-410.3,801.321-409.633,805.131-409.633,807.646Zm-9.506,5.881c0,1.331.037,2.959,1.48,2.959,2.219,0,3.477-6.14,3.477-9.395,0-1.221-.333-2.256-1.442-2.256C-417.623,804.835-419.176,810.42-419.139,813.527Z" data-name="Path 316"
                                            fill="#fafbff"
                                            id="Path_316"
                                            transform="translate(439.405 -794.552)" />
                                    </g>
                                </g>
                                <g data-name="Group 250" id="Group_250"
                                    transform="translate(64.477)">
                                    <g data-name="Group 249" id="Group_249">
                                        <path d="M-298.066,785.723l-4.771,24.93h-4.624l4.771-24.93Z" data-name="Path 317"
                                            fill="#fafbff"
                                            id="Path_317" transform="translate(307.46 -785.057)" />
                                        <path d="M-289.347,815.746a5.4,5.4,0,0,0,2.922.74,1.951,1.951,0,0,0,2.071-2.035c0-1-.481-1.7-1.738-2.7a5.684,5.684,0,0,1-2.293-4.4c0-3.329,2.589-6.029,6.694-6.029a7.279,7.279,0,0,1,3.4.666l-1,3.366a4.709,4.709,0,0,0-2.145-.555c-1.48,0-2.4.776-2.4,2,0,.925.518,1.48,1.369,2.182a6.036,6.036,0,0,1,2.7,4.734c0,3.994-2.774,6.214-6.917,6.214a7.338,7.338,0,0,1-3.773-.924Z" data-name="Path 318"
                                            fill="#fafbff"
                                            id="Path_318"
                                            transform="translate(297.593 -794.108)" />
                                        <path d="M-263.672,819.7l2.331-12.28c.407-2.071.666-4.143.925-5.807h3.957c-.074.924-.148,1.886-.259,3h.111c1.331-2.293,2.959-3.292,4.475-3.292a2.273,2.273,0,0,1,.74.074l-.851,4.624c-.185,0-.518-.037-.777-.037-2,0-3.884,2.294-4.438,5.363l-1.591,8.359Z" data-name="Path 319"
                                            fill="#fafbff"
                                            id="Path_319" transform="translate(282.05 -794.108)" />
                                        <path d="M-230.581,819.7c.037-.962.111-1.961.148-3.033h-.111c-1.443,2.4-3.181,3.329-4.624,3.329-2.626,0-3.921-2.257-3.921-5.437,0-5.474,2.737-13.242,10.5-13.242a13.964,13.964,0,0,1,4.735.74l-2,10.06a41.812,41.812,0,0,0-.74,7.582Zm1.664-14.832a5.105,5.105,0,0,0-.962-.111c-3.033,0-4.66,6.029-4.7,8.692,0,1.591.222,2.738,1.368,2.738,1.258,0,2.442-2.071,3.107-5.363Z" data-name="Path 320"
                                            fill="#fafbff"
                                            id="Path_320"
                                            transform="translate(267.784 -794.108)" />
                                        <path d="M-192.05,818.927a12.741,12.741,0,0,1-5.215,1c-4.439,0-6.14-2.922-6.14-6.806,0-5.252,2.922-11.8,8.692-11.8,3.293,0,4.772,2.442,4.809,4.919,0,4.956-4,6.806-9.025,6.658a3.817,3.817,0,0,0,.407,2.108,2.758,2.758,0,0,0,2.514,1.294,7.871,7.871,0,0,0,3.662-.887ZM-195.3,805.02c-1.405,0-2.663,1.813-3.181,4.4,2.441.111,4.475-.851,4.475-2.737C-194.01,805.649-194.417,805.02-195.3,805.02Z" data-name="Path 321"
                                            fill="#fafbff"
                                            id="Path_321"
                                            transform="translate(247.078 -794.108)" />
                                        <path d="M-173.625,809.732l4.882-25.6h4.624l-4.882,25.6Z" data-name="Path 322"
                                            fill="#fafbff"
                                            id="Path_322"
                                            transform="translate(229.797 -784.136)" />
                                    </g>
                                </g>
                                <g data-name="Group 251" id="Group_251"
                                    transform="translate(30.32 0.058)">
                                    <path d="M-388.842,810.164l2.848-14.832h-2.4l.592-3.254h2.441l.148-.74a9.473,9.473,0,0,1,2.737-5.4,6.684,6.684,0,0,1,4.586-1.665,8.444,8.444,0,0,1,2.626.37l-1.035,3.551a4.22,4.22,0,0,0-1.443-.222c-1.665,0-2.626,1.738-2.922,3.328l-.148.777h3.513l-.629,3.254h-3.44l-2.848,14.832Z" data-name="Path 323"
                                        fill="#fafbff"
                                        id="Path_323" transform="translate(388.842 -784.273)" />
                                    <path d="M-352.546,808.487c0,5.7-3.033,12.354-8.544,12.354-4.549,0-5.548-3.588-5.548-6.251,0-6.1,3.366-12.428,8.84-12.428C-353.211,802.162-352.546,805.972-352.546,808.487Zm-9.506,5.881c0,1.331.037,2.96,1.48,2.96,2.219,0,3.477-6.141,3.477-9.4,0-1.221-.333-2.256-1.442-2.256C-360.535,805.676-362.088,811.261-362.052,814.368Z" data-name="Path 324"
                                        fill="#fafbff"
                                        id="Path_324" transform="translate(375.957 -794.654)" />
                                    <path d="M-333.862,820.545l2.331-12.279c.407-2.072.666-4.143.925-5.807h3.957c-.074.925-.148,1.886-.259,3h.111c1.331-2.294,2.959-3.293,4.475-3.293a2.274,2.274,0,0,1,.74.074l-.851,4.623c-.185,0-.518-.037-.777-.037-2,0-3.884,2.293-4.438,5.363l-1.591,8.359Z" data-name="Path 325"
                                        fill="#fafbff"
                                        id="Path_325" transform="translate(356.938 -794.654)" />
                                </g>
                            </g>
                        </g>
                    </g>
                </g>
                <g data-name="Group 257" id="Group_257" transform="translate(130.351 14.721)">
                    <g data-name="Group 256" id="Group_256">
                        <path d="M-150.509,830.64l.256-1.824,1.4-1.494c1.758-1.858,2.956-3.161,3.151-4.551a1.079,1.079,0,0,0-1.171-1.337,3.774,3.774,0,0,0-1.779.539l-.137-2.084a6.041,6.041,0,0,1,2.71-.677c2.7,0,3.243,1.772,3.021,3.352-.3,2.12-1.8,3.648-3.23,4.986l-.734.695,0,.035h3.285l-.332,2.362Z" data-name="Path 326"
                            fill="#fafbff"
                            id="Path_326" transform="translate(150.509 -819.21)" />
                        <path d="M-124.7,824.925c-.566,4.03-2.354,5.853-4.246,5.853-2.735,0-3.016-3.144-2.655-5.715.422-3,1.8-5.853,4.332-5.853C-124.332,819.21-124.382,822.632-124.7,824.925Zm-4.224.069c-.4,2.606-.267,3.492.353,3.492.533,0,.839-.956,1.2-3.492.327-2.328.353-3.491-.214-3.491C-128.146,821.5-128.585,822.423-128.929,824.994Z" data-name="Path 327"
                            fill="#fafbff"
                            id="Path_327" transform="translate(139.613 -819.21)" />
                        <path d="M-109.965,822.024H-110l-2.041.938-.134-2.1,2.834-1.321h2.357l-1.587,11.291H-111.2Z" data-name="Path 328"
                            fill="#fafbff"
                            id="Path_328" transform="translate(128.264 -819.401)" />
                        <path d="M-96.441,828.573a5.7,5.7,0,0,0,1.13-.087,3.1,3.1,0,0,0,1.3-.591,4.534,4.534,0,0,0,1.244-1.876h-.052a2.316,2.316,0,0,1-1.58.59c-1.479,0-2.535-1.3-2.242-3.387.264-1.876,1.768-4.013,4.108-4.013,2.15,0,3.076,1.858,2.678,4.69a8.753,8.753,0,0,1-2.774,5.541,5.8,5.8,0,0,1-3.021,1.3,7.8,7.8,0,0,1-1.106.034Zm2.45-5.559c-.1.851-.011,1.789.591,1.789a.891.891,0,0,0,.693-.4,4.84,4.84,0,0,0,.3-1.424c.154-1.094-.049-1.859-.531-1.859C-93.467,821.12-93.867,821.885-93.991,823.014Z" data-name="Path 329"
                            fill="#fafbff"
                            id="Path_329" transform="translate(119.314 -819.21)" />
                    </g>
                </g>
            </g>
        </g>
    </g>
</svg>
