<svg xmlns="http://www.w3.org/2000/svg" width="35.588" height="38.935" viewBox="0 0 35.588 38.935">
    <g id="Group_815" data-name="Group 815" transform="translate(-935.853 -1891.545)">
        <path id="Path_791" data-name="Path 791"
              d="M943.868,1901.8h19.486a.625.625,0,0,0,0-1.25H943.868a.625.625,0,0,0,0,1.25Z" fill="#ffffff"/>
        <path id="Path_792" data-name="Path 792"
              d="M943.868,1906.506h9.815a.625.625,0,0,0,0-1.25h-9.815a.625.625,0,0,0,0,1.25Z" fill="#ffffff"/>
        <path id="Path_793" data-name="Path 793"
              d="M962.794,1906.506a.625.625,0,0,0,0-1.25h-2.916a.625.625,0,0,0,0,1.25Z" fill="#ffffff"/>
        <path id="Path_794" data-name="Path 794"
              d="M964.051,1914.731a.625.625,0,0,0-.625-.625H943.94a.625.625,0,0,0,0,1.25h19.486A.625.625,0,0,0,964.051,1914.731Z"
              fill="#ffffff"/>
        <path id="Path_795" data-name="Path 795"
              d="M952.986,1910.026a.625.625,0,0,0,.625.625h9.815a.625.625,0,0,0,0-1.25h-9.815A.625.625,0,0,0,952.986,1910.026Z"
              fill="#ffffff"/>
        <path id="Path_796" data-name="Path 796" d="M944.5,1909.4a.625.625,0,0,0,0,1.25h2.918a.625.625,0,0,0,0-1.25Z"
              fill="#ffffff"/>
        <path id="Path_797" data-name="Path 797"
              d="M936.765,1930.411l11.919-6.155h10.078a12.693,12.693,0,0,0,12.679-12.678v-7.354a12.694,12.694,0,0,0-12.679-12.679h-10.23a12.694,12.694,0,0,0-12.679,12.679v25.631a.626.626,0,0,0,.912.556Zm.338-26.187a11.442,11.442,0,0,1,11.429-11.429h10.23a11.442,11.442,0,0,1,11.429,11.429v7.354a11.442,11.442,0,0,1-11.429,11.428h-10.23a.624.624,0,0,0-.287.07l-11.142,5.753Z"
              fill="#ffffff"/>
    </g>
</svg>
