<svg xmlns="http://www.w3.org/2000/svg" width="38.52" height="38.52" viewBox="0 0 38.52 38.52">
    <g id="Group_816" data-name="Group 816" transform="translate(-420 -3177)">
        <line id="Line_65" data-name="Line 65" x2="19.407" transform="translate(424.381 3193.026)" fill="none"
              stroke="#ffffff" stroke-linecap="round" stroke-linejoin="round" stroke-width="1"/>
        <line id="Line_66" data-name="Line 66" x2="12.938" transform="translate(424.381 3199.495)" fill="none"
              stroke="#ffffff" stroke-linecap="round" stroke-linejoin="round" stroke-width="1"/>
        <line id="Line_67" data-name="Line 67" x2="11.644" transform="translate(424.381 3205.964)" fill="none"
              stroke="#ffffff" stroke-linecap="round" stroke-linejoin="round" stroke-width="1"/>
        <circle id="Ellipse_39" data-name="Ellipse 39" cx="1.294" cy="1.294" r="1.294"
                transform="translate(424.381 3181.381)" stroke-width="1" stroke="#ffffff" stroke-linecap="round"
                stroke-linejoin="round" fill="none"/>
        <circle id="Ellipse_40" data-name="Ellipse 40" cx="1.294" cy="1.294" r="1.294"
                transform="translate(430.85 3181.381)" stroke-width="1" stroke="#ffffff" stroke-linecap="round"
                stroke-linejoin="round" fill="none"/>
        <circle id="Ellipse_41" data-name="Ellipse 41" cx="1.294" cy="1.294" r="1.294"
                transform="translate(437.319 3181.381)" stroke-width="1" stroke="#ffffff" stroke-linecap="round"
                stroke-linejoin="round" fill="none"/>
        <circle id="Ellipse_42" data-name="Ellipse 42" cx="1.294" cy="1.294" r="1.294"
                transform="translate(443.788 3181.381)" stroke-width="1" stroke="#ffffff" stroke-linecap="round"
                stroke-linejoin="round" fill="none"/>
        <line id="Line_68" data-name="Line 68" y1="3.881" transform="translate(425.675 3177.5)" fill="none"
              stroke="#ffffff" stroke-linecap="round" stroke-linejoin="round" stroke-width="1"/>
        <line id="Line_69" data-name="Line 69" y1="3.881" transform="translate(432.144 3177.5)" fill="none"
              stroke="#ffffff" stroke-linecap="round" stroke-linejoin="round" stroke-width="1"/>
        <line id="Line_70" data-name="Line 70" y1="3.881" transform="translate(438.613 3177.5)" fill="none"
              stroke="#ffffff" stroke-linecap="round" stroke-linejoin="round" stroke-width="1"/>
        <line id="Line_71" data-name="Line 71" y1="3.881" transform="translate(445.082 3177.5)" fill="none"
              stroke="#ffffff" stroke-linecap="round" stroke-linejoin="round" stroke-width="1"/>
        <line id="Line_72" data-name="Line 72" x2="4.528" y2="4.528" transform="translate(450.257 3187.203)" fill="none"
              stroke="#ffffff" stroke-linecap="round" stroke-linejoin="round" stroke-width="1"/>
        <path id="Path_798" data-name="Path 798" d="M433.5,3194.5a6.1,6.1,0,0,1,5.175,5.175"
              transform="translate(3.819 4.995)" fill="none" stroke="#ffffff" stroke-linecap="round"
              stroke-linejoin="round" stroke-width="1"/>
        <path id="Path_799" data-name="Path 799"
              d="M442.495,3204.67l-6.469,1.294,1.294-6.469,12.938-12.54v-8.161a1.294,1.294,0,0,0-1.294-1.294h-27.17a1.294,1.294,0,0,0-1.294,1.294v34.933a1.294,1.294,0,0,0,1.294,1.293h27.17a1.294,1.294,0,0,0,1.294-1.293V3196.66Z"
              fill="none" stroke="#ffffff" stroke-linecap="round" stroke-linejoin="round" stroke-width="1"/>
        <path id="Path_800" data-name="Path 800"
              d="M432.5,3204.495l1.294-6.469,15.012-14.55a3.332,3.332,0,0,1,2.355-.975h0a3.331,3.331,0,0,1,3.33,3.33v0a3.33,3.33,0,0,1-.976,2.354l-14.55,15.012Z"
              transform="translate(3.526 1.469)" fill="none" stroke="#ffffff" stroke-linecap="round"
              stroke-linejoin="round" stroke-width="1"/>
    </g>
</svg>
