<svg height="42.42" viewBox="0 0 42.42 42.42" width="42.42" xmlns="http://www.w3.org/2000/svg">
    <g id="twitter" transform="translate(-261.04 -145.58)">
        <g data-name="Symbol 2 1" id="Symbol_2_1">
            <rect data-name="Rectangle 1457" fill="none" height="12.12" id="Rectangle_1457"
                transform="translate(276.19 160.73)" width="12.12" />
            <path d="M280.028,172.076a7.007,7.007,0,0,0,7.07-6.944v-.463a5.475,5.475,0,0,0,1.212-1.279,5.576,5.576,0,0,1-1.414.4,2.616,2.616,0,0,0,1.077-1.347,6.167,6.167,0,0,1-1.548.606,2.407,2.407,0,0,0-1.818-.807,2.53,2.53,0,0,0-2.492,2.491,1.314,1.314,0,0,0,.068.539,6.962,6.962,0,0,1-5.118-2.626,2.562,2.562,0,0,0-.336,1.279,2.675,2.675,0,0,0,1.077,2.088,2.272,2.272,0,0,1-1.145-.336h0a2.462,2.462,0,0,0,2.02,2.424,2.091,2.091,0,0,1-.673.067,1.143,1.143,0,0,1-.471-.067,2.55,2.55,0,0,0,2.356,1.75,5.084,5.084,0,0,1-3.1,1.077,1.879,1.879,0,0,1-.606-.067,6.358,6.358,0,0,0,3.838,1.212" data-name="Path 2"
                fill="#90a4ae"
                fill-rule="evenodd" id="Path_2" />
        </g>
        <g data-name="Ellipse 42" id="Ellipse_42">
            <circle cx="21.21" cy="21.21" data-name="Ellipse 29" fill="none" id="Ellipse_29"
                r="21.21" transform="translate(261.04 145.58)" />
            <circle cx="20.831" cy="20.831" data-name="Ellipse 30" fill="none" id="Ellipse_30"
                r="20.831" stroke="#90a4ae" stroke-width="0.757"
                transform="translate(261.419 145.959)" />
        </g>
    </g>
</svg>
